<svg
   width="5.9701843mm"
   height="5.9714203mm"
   viewBox="0 0 5.9701843 5.9714203"
   version="1.1"
   id="svg5"
   xml:space="preserve"
   inkscape:version="1.2.2 (b0a8486541, 2022-12-01, custom)"
   sodipodi:docname="ToDo list.svg"
   xmlns:inkscape="http://www.inkscape.org/namespaces/inkscape"
   xmlns:sodipodi="http://sodipodi.sourceforge.net/DTD/sodipodi-0.dtd"
   xmlns="http://www.w3.org/2000/svg"
   xmlns:svg="http://www.w3.org/2000/svg"><sodipodi:namedview
     id="namedview7"
     pagecolor="#ffffff"
     bordercolor="#000000"
     borderopacity="0.25"
     inkscape:showpageshadow="2"
     inkscape:pageopacity="0.0"
     inkscape:pagecheckerboard="0"
     inkscape:deskcolor="#d1d1d1"
     inkscape:document-units="mm"
     showgrid="false"
     showguides="false"
     inkscape:zoom="0.4792789"
     inkscape:cx="136.66364"
     inkscape:cy="409.99093"
     inkscape:window-width="1366"
     inkscape:window-height="704"
     inkscape:window-x="0"
     inkscape:window-y="27"
     inkscape:window-maximized="1"
     inkscape:current-layer="layer1" /><defs
     id="defs2" /><g
     inkscape:label="Camada 1"
     inkscape:groupmode="layer"
     id="layer1"
     transform="translate(-70.942995,-129.15423)"><ellipse
       style="fill:#ffffff;fill-opacity:1;stroke:none;stroke-width:0.0706047;stroke-dasharray:none"
       id="path5354"
       cx="73.922409"
       cy="132.04689"
       rx="2.4811049"
       ry="2.3372002" /><path
       style="fill:#4dd04d;fill-opacity:1;stroke-width:0.0133495"
       d="m 73.669026,135.11529 c -0.68227,-0.0562 -1.357279,-0.37185 -1.851005,-0.86557 -0.355445,-0.35544 -0.622835,-0.80754 -0.758488,-1.28243 -0.401762,-1.40648 0.262051,-2.88535 1.579492,-3.51887 1.140878,-0.54863 2.502197,-0.3159 3.399202,0.58109 0.355438,0.35545 0.622834,0.80755 0.758484,1.28243 0.299929,1.04998 0.01131,2.16803 -0.758484,2.93778 -0.624258,0.62425 -1.484265,0.93845 -2.369201,0.86557 z m 0.02548,-1.73275 c 0.09772,-0.0466 1.857023,-1.80582 1.903793,-1.90372 0.0267,-0.056 0.03188,-0.0874 0.03188,-0.19357 0,-0.14764 -0.02587,-0.21628 -0.115036,-0.30547 -0.0892,-0.0892 -0.157829,-0.11504 -0.305474,-0.11504 -0.106462,0 -0.137537,0.005 -0.193565,0.032 -0.05223,0.0251 -0.224212,0.189 -0.790711,0.7536 l -0.72396,0.72154 -0.29728,-0.29397 c -0.352891,-0.34897 -0.368242,-0.35886 -0.557595,-0.35886 -0.147645,0 -0.216273,0.0259 -0.305468,0.11504 -0.0892,0.0892 -0.115048,0.15784 -0.115048,0.30547 0,0.19744 -0.0054,0.19005 0.50614,0.70521 0.448576,0.45183 0.526121,0.5217 0.61743,0.55632 0.08087,0.0306 0.262026,0.0208 0.34488,-0.0186 z"
       id="path5231" /></g></svg>
